# xmcd
#
# Track frame offsets:
#  150
#  11570
#  22970
#  33552
#  44790
#  55250
#  68930
#  80532
#  90792
#  99502
#  111547
#  124812
#
# Disc length: 1843 seconds
#
# Revision: 0
# Processed by: cddbd v1.4b41PL2 Copyright (c) Steve Scherf et al.
# Submitted via: AltoMP3 Maker 3.0
#
DISCID=9c07310c
DTITLE=Fabian Gómez - Ay! Amor
DYEAR=1900
DGENRE=
TTITLE0=¿Que te ha dado esa mujer?
TTITLE1=Prisionero de tus brazos
TTITLE2=Por una mujer casada
TTITLE3=El ultimo trago
TTITLE4=Años, 9 meses
TTITLE5=La vida prestada
TTITLE6=Abre el corazón
TTITLE7=Cuatro leguas
TTITLE8=No le hace que estes casada
TTITLE9=Reflexion
TTITLE10=La vívora
TTITLE11=Ay! amor
EXTD=
EXTT0=
EXTT1=
EXTT2=
EXTT3=
EXTT4=
EXTT5=
EXTT6=
EXTT7=
EXTT8=
EXTT9=
EXTT10=
EXTT11=
PLAYORDER=
